<svg width="48" height="48" viewBox="0 0 48 48" fill="none" xmlns="http://www.w3.org/2000/svg">
<path d="M37.42 18.98C37.22 18.98 37.02 18.94 36.82 18.86C36.06 18.52 35.72 17.64 36.04 16.88C36.42 16.02 36.2 14.76 35.5 13.72C34.8 12.66 33.74 11.94 32.78 12C31.9 12 31.28 11.34 31.26 10.52C31.26 9.68001 31.92 9.02001 32.74 9.00001C34.8 8.96001 36.74 10.14 38 12.04C39.28 13.96 39.58 16.26 38.8 18.06C38.56 18.64 38 18.98 37.42 18.98Z" fill="#DD7B2F"/>
<path d="M43.64 20.96C43.5 20.96 43.38 20.94 43.24 20.9C42.44 20.68 41.98 19.86 42.2 19.06C42.96 16.34 42.32 13.1 40.5 10.38C38.68 7.65996 35.92 5.83996 33.1 5.49996C32.28 5.39996 31.7 4.65996 31.8 3.83996C31.9 3.01996 32.66 2.41996 33.46 2.53996C37.12 2.97996 40.68 5.29996 42.98 8.73996C45.28 12.18 46.06 16.34 45.08 19.9C44.9 20.52 44.3 20.96 43.64 20.96Z" fill="#DD7B2F"/>
<path d="M34.24 23.56C34.24 24.16 33.74 24.66 33.14 24.66H6.86001C6.26001 24.66 5.76001 24.16 5.76001 23.56C5.76001 22.96 6.26001 22.46 6.86001 22.46H8.34001L8.90001 19.82C9.42001 17.26 10.52 14.92 14.88 14.92H25.14C29.5 14.92 30.58 17.28 31.12 19.82L31.68 22.46H33.16C33.74 22.46 34.24 22.96 34.24 23.56Z" fill="#DD7B2F"/>
<path d="M34.86 31.8201C34.64 29.4201 34 26.8401 29.32 26.8401H10.68C5.99997 26.8401 5.35997 29.4201 5.13997 31.8201L4.31997 40.7201C4.21997 41.8201 4.57997 42.9401 5.33997 43.7801C6.11997 44.6201 7.19997 45.1001 8.37997 45.1001H11.12C13.48 45.1001 13.94 43.7401 14.24 42.8601L14.54 41.9801C14.88 40.9801 14.96 40.7201 16.28 40.7201H23.76C25.08 40.7201 25.12 40.8601 25.5 41.9801L25.8 42.8601C26.1 43.7601 26.54 45.1001 28.92 45.1001H31.66C32.82 45.1001 33.92 44.6201 34.7 43.7801C35.46 42.9401 35.82 41.8401 35.72 40.7201L34.86 31.8201ZM15.62 34.8601H11.24C10.64 34.8601 10.14 34.3601 10.14 33.7601C10.14 33.1601 10.64 32.6601 11.24 32.6601H15.62C16.22 32.6601 16.72 33.1601 16.72 33.7601C16.72 34.3601 16.22 34.8601 15.62 34.8601ZM28.76 34.8601H24.38C23.78 34.8601 23.28 34.3601 23.28 33.7601C23.28 33.1601 23.78 32.6601 24.38 32.6601H28.76C29.36 32.6601 29.86 33.1601 29.86 33.7601C29.86 34.3601 29.36 34.8601 28.76 34.8601Z" fill="#212529"/>
</svg>
