<svg width="119" height="16" viewBox="0 0 119 16" fill="none" xmlns="http://www.w3.org/2000/svg">
<path d="M0.12 16V1.6H3.02L8.24 7.82L13.44 1.6H16.36V16H13.7V5.44L8.24 11.94L2.76 5.46V16H0.12ZM21.3347 16C20.828 16 20.368 15.8733 19.9547 15.62C19.5414 15.3667 19.208 15.0333 18.9547 14.62C18.7014 14.2067 18.5747 13.7467 18.5747 13.24V7.16C18.5747 6.65333 18.7014 6.19333 18.9547 5.78C19.208 5.36667 19.5414 5.03333 19.9547 4.78C20.368 4.52667 20.828 4.4 21.3347 4.4H27.5947C28.1014 4.4 28.5614 4.52667 28.9747 4.78C29.4014 5.03333 29.7347 5.36667 29.9747 5.78C30.228 6.19333 30.3547 6.65333 30.3547 7.16V11.52H21.1947V13.14C21.1947 13.2067 21.2147 13.2667 21.2547 13.32C21.308 13.36 21.368 13.38 21.4347 13.38H30.3547V16H21.3347ZM21.1947 9.16H27.7347V7.26C27.7347 7.19333 27.708 7.14 27.6547 7.1C27.6147 7.04667 27.5614 7.02 27.4947 7.02H21.4347C21.368 7.02 21.308 7.04667 21.2547 7.1C21.2147 7.14 21.1947 7.19333 21.1947 7.26V9.16ZM35.2223 16C34.7157 16 34.2557 15.8733 33.8423 15.62C33.429 15.3667 33.0957 15.0333 32.8423 14.62C32.589 14.2067 32.4623 13.7467 32.4623 13.24V0.84H35.0823V4.4H39.6023V7.02H35.0823V13.14C35.0823 13.2067 35.1023 13.2667 35.1423 13.32C35.1957 13.36 35.2557 13.38 35.3223 13.38H39.6023V16H35.2223ZM41.3486 16V7.16C41.3486 6.65333 41.4753 6.19333 41.7286 5.78C41.9819 5.36667 42.3153 5.03333 42.7286 4.78C43.1553 4.52667 43.6153 4.4 44.1086 4.4H50.5486V7.02H44.2086C44.1419 7.02 44.0819 7.04667 44.0286 7.1C43.9886 7.14 43.9686 7.19333 43.9686 7.26V16H41.3486ZM54.5769 16C54.0702 16 53.6102 15.8733 53.1969 15.62C52.7835 15.3667 52.4502 15.0333 52.1969 14.62C51.9435 14.2067 51.8169 13.7467 51.8169 13.24V7.16C51.8169 6.65333 51.9435 6.19333 52.1969 5.78C52.4502 5.36667 52.7835 5.03333 53.1969 4.78C53.6102 4.52667 54.0702 4.4 54.5769 4.4H60.8369C61.3435 4.4 61.8035 4.52667 62.2169 4.78C62.6435 5.03333 62.9769 5.36667 63.2169 5.78C63.4702 6.19333 63.5969 6.65333 63.5969 7.16V13.24C63.5969 13.7467 63.4702 14.2067 63.2169 14.62C62.9769 15.0333 62.6502 15.3667 62.2369 15.62C61.8235 15.8733 61.3569 16 60.8369 16H54.5769ZM54.6769 13.38H60.7369C60.8035 13.38 60.8569 13.36 60.8969 13.32C60.9502 13.2667 60.9769 13.2067 60.9769 13.14V7.26C60.9769 7.19333 60.9502 7.14 60.8969 7.1C60.8569 7.04667 60.8035 7.02 60.7369 7.02H54.6769C54.6102 7.02 54.5502 7.04667 54.4969 7.1C54.4569 7.14 54.4369 7.19333 54.4369 7.26V13.14C54.4369 13.2067 54.4569 13.2667 54.4969 13.32C54.5502 13.36 54.6102 13.38 54.6769 13.38Z" fill="#212529"/>
<path d="M65.7645 16V1.6H68.6645L73.8845 7.82L79.0845 1.6H82.0045V16H79.3445V5.44L73.8845 11.94L68.4045 5.46V16H65.7645ZM86.8625 16C86.3558 16 85.8892 15.8733 85.4625 15.62C85.0492 15.3667 84.7158 15.0333 84.4625 14.62C84.2225 14.2067 84.1025 13.7467 84.1025 13.24V8.88H93.2625V7.26C93.2625 7.19333 93.2358 7.14 93.1825 7.1C93.1425 7.04667 93.0892 7.02 93.0225 7.02H84.1025V4.4H93.1225C93.6292 4.4 94.0892 4.52667 94.5025 4.78C94.9292 5.03333 95.2625 5.36667 95.5025 5.78C95.7558 6.19333 95.8825 6.65333 95.8825 7.16V16H86.8625ZM86.9625 13.38H93.2625V11.24H86.7225V13.14C86.7225 13.2067 86.7425 13.2667 86.7825 13.32C86.8358 13.36 86.8958 13.38 86.9625 13.38ZM100.769 16C100.263 16 99.8026 15.8733 99.3892 15.62C98.9759 15.3667 98.6426 15.0333 98.3892 14.62C98.1359 14.2067 98.0092 13.7467 98.0092 13.24V0.84H100.629V4.4H105.149V7.02H100.629V13.14C100.629 13.2067 100.649 13.2667 100.689 13.32C100.743 13.36 100.803 13.38 100.869 13.38H105.149V16H100.769ZM109.499 16C108.992 16 108.532 15.8733 108.119 15.62C107.705 15.3667 107.372 15.0333 107.119 14.62C106.865 14.2067 106.739 13.7467 106.739 13.24V7.16C106.739 6.65333 106.865 6.19333 107.119 5.78C107.372 5.36667 107.705 5.03333 108.119 4.78C108.532 4.52667 108.992 4.4 109.499 4.4H115.759C116.265 4.4 116.725 4.52667 117.139 4.78C117.565 5.03333 117.899 5.36667 118.139 5.78C118.392 6.19333 118.519 6.65333 118.519 7.16V11.52H109.359V13.14C109.359 13.2067 109.379 13.2667 109.419 13.32C109.472 13.36 109.532 13.38 109.599 13.38H118.519V16H109.499ZM109.359 9.16H115.899V7.26C115.899 7.19333 115.872 7.14 115.819 7.1C115.779 7.04667 115.725 7.02 115.659 7.02H109.599C109.532 7.02 109.472 7.04667 109.419 7.1C109.379 7.14 109.359 7.19333 109.359 7.26V9.16Z" fill="#DD7B2F"/>
</svg>
